<?xml version="1.0" standalone="no"?><!DOCTYPE svg PUBLIC "-//W3C//DTD SVG 1.1//EN" "http://www.w3.org/Graphics/SVG/1.1/DTD/svg11.dtd"><svg t="1626341228524" class="icon" viewBox="0 0 1024 1024" version="1.1" xmlns="http://www.w3.org/2000/svg" p-id="10428" xmlns:xlink="http://www.w3.org/1999/xlink" width="48" height="48"><defs><style type="text/css"></style></defs><path d="M378.8 108.6H236.7c-7.4 0-13.5 6-13.5 13.5v32.8c0 7.4 6 13.5 13.5 13.5h21.2v147.3h99.6V168.4h21.2c7.4 0 13.5-6 13.5-13.5v-32.8c0-7.4-6-13.5-13.4-13.5z" fill="#d81e06" p-id="10429"></path><path d="M821.9 340.6L560.6 126c-14.1-11.6-31.4-17.4-48.6-17.4s-34.5 5.8-48.7 17.4L202.1 340.6c-17.8 14.7-28 36.4-28 59.3v326.3c0 42.3 34.3 76.6 76.6 76.6h522.6c42.3 0 76.6-34.4 76.6-76.7V399.9c0-23-10.3-44.7-28-59.3z m-52 382.2H596.5V569.4c0-46.5-38-84.5-84.5-84.5s-84.5 38-84.5 84.5v153.4H254.1V401.4L512 189.6l257.9 211.8v321.4z" fill="#d81e06" p-id="10430"></path></svg>