<?xml version="1.0" standalone="no"?><!DOCTYPE svg PUBLIC "-//W3C//DTD SVG 1.1//EN" "http://www.w3.org/Graphics/SVG/1.1/DTD/svg11.dtd"><svg t="1626335033703" class="icon" viewBox="0 0 1024 1024" version="1.1" xmlns="http://www.w3.org/2000/svg" p-id="9857" xmlns:xlink="http://www.w3.org/1999/xlink" width="48" height="48"><defs><style type="text/css"></style></defs><path d="M511.9 526.4c32.7 0 64.6 5.7 94.8 17 29.3 10.9 56.3 26.7 80.3 47 40.2 33.9 69.6 78.6 84.8 128.1l-519.8-0.1c15.3-49.5 44.7-94.2 84.8-128 24-20.3 51-36.1 80.3-47 30.2-11.3 62.1-17 94.8-17m0-80c-172.7 0-316.4 124.6-346.2 288.7-5.9 33 19.2 63.3 52.7 63.3l587 0.1c33.5 0 58.7-30.4 52.7-63.3C828.4 571 684.6 446.4 511.9 446.4z" fill="#1afa29" p-id="9858"></path><path d="M512 194.4c55.8 0 101.2 45.4 101.2 101.2S567.8 396.8 512 396.8s-101.2-45.4-101.2-101.2S456.2 194.4 512 194.4m0-80c-100.1 0-181.2 81.1-181.2 181.2S411.9 476.8 512 476.8s181.2-81.1 181.2-181.2S612.1 114.4 512 114.4z" fill="#1afa29" p-id="9859"></path></svg>