<?xml version="1.0" standalone="no"?><!DOCTYPE svg PUBLIC "-//W3C//DTD SVG 1.1//EN" "http://www.w3.org/Graphics/SVG/1.1/DTD/svg11.dtd"><svg t="1626341262754" class="icon" viewBox="0 0 1024 1024" version="1.1" xmlns="http://www.w3.org/2000/svg" p-id="10813" xmlns:xlink="http://www.w3.org/1999/xlink" width="48" height="48"><defs><style type="text/css"></style></defs><path d="M841.3 798.7c-11.8 11.7-27.1 17.6-42.5 17.6s-30.7-5.9-42.4-17.6L646.5 688.8c33.7-22.3 62.6-51.2 84.9-84.9l109.9 109.9c23.4 23.4 23.4 61.4 0 84.9z" fill="#d81e06" p-id="10814"></path><path d="M481.4 184.5c34.4 0 67.7 6.7 99 20 30.3 12.8 57.5 31.2 80.9 54.6s41.7 50.6 54.6 80.9c13.2 31.3 20 64.6 20 99s-6.7 67.7-20 99c-12.8 30.3-31.2 57.5-54.6 80.9-23.4 23.4-50.6 41.7-80.9 54.6-31.3 13.2-64.6 20-99 20s-67.7-6.7-99-20c-30.3-12.8-57.5-31.2-80.9-54.6-23.4-23.4-41.7-50.6-54.6-80.9-13.2-31.3-20-64.6-20-99s6.7-67.7 20-99c12.8-30.3 31.2-57.5 54.6-80.9s50.6-41.7 80.9-54.6c31.3-13.3 64.6-20 99-20m0-80C296.7 104.5 147 254.2 147 438.9s149.7 334.4 334.4 334.4 334.4-149.7 334.4-334.4-149.7-334.4-334.4-334.4z" fill="#d81e06" p-id="10815"></path></svg>