<?xml version="1.0" standalone="no"?><!DOCTYPE svg PUBLIC "-//W3C//DTD SVG 1.1//EN" "http://www.w3.org/Graphics/SVG/1.1/DTD/svg11.dtd"><svg t="1626341252199" class="icon" viewBox="0 0 1024 1024" version="1.1" xmlns="http://www.w3.org/2000/svg" p-id="10622" xmlns:xlink="http://www.w3.org/1999/xlink" width="48" height="48"><defs><style type="text/css"></style></defs><path d="M512 103.4c-209.9 0-380 170.1-380 380s170.1 380 380 380 380-170.1 380-380-170.1-380-380-380z m212.1 592c-27.6 27.6-59.7 49.2-95.4 64.3-36.9 15.6-76.2 23.5-116.7 23.5s-79.8-7.9-116.7-23.5c-35.7-15.1-67.8-36.7-95.4-64.3s-49.2-59.7-64.3-95.4c-15.6-36.9-23.5-76.2-23.5-116.7s7.9-79.8 23.5-116.7c15.1-35.7 36.7-67.8 64.3-95.4s59.7-49.2 95.4-64.3c36.9-15.6 76.2-23.5 116.7-23.5s79.8 7.9 116.7 23.5c35.7 15.1 67.8 36.7 95.4 64.3 27.6 27.6 49.2 59.7 64.3 95.4 15.6 36.9 23.5 76.2 23.5 116.7S804 563.1 788.4 600c-15.1 35.7-36.7 67.8-64.3 95.4zM341.7 407.7v-32.3c0-21 17-38.2 38.2-38.2s38.2 17 38.2 38.2v32.3c-0.1 21.2-17.2 38.2-38.2 38.2s-38.2-17-38.2-38.2z m264.2 0v-32.3c0-21 17-38.2 38.2-38.2s38.2 17 38.2 38.2v32.3c-0.2 21.2-17.2 38.2-38.2 38.2s-38.2-17-38.2-38.2z m72.4 103.8H345.7c-23.9 0-41.7 22-36.7 45.3 20.5 93.3 103.8 162.7 203 162.7s182.4-69.6 203-162.7c5-23.3-12.8-45.3-36.7-45.3z m-85.7 99.4c-23 18.7-50.9 28.6-80.6 28.6-29.7 0-57.6-9.9-80.6-28.5-7.2-5.8-13.7-12.4-19.4-19.5h199.9c-5.7 7.1-12.2 13.6-19.3 19.4z" fill="#d81e06" p-id="10623"></path></svg>